<svg viewBox="0 0 800 480" xmlns="http://www.w3.org/2000/svg">
  <rect width="800" height="480" fill="#e4f0ff"/>
  
  <!-- Background decorative elements -->
  <circle cx="150" cy="370" r="65" fill="#2171CC" opacity="0.2"/>
  <circle cx="680" cy="100" r="55" fill="#8fa4da" opacity="0.3"/>
  
  <!-- Mobile phone mockup -->
  <g transform="translate(400, 240)">
    <!-- Phone body -->
    <rect x="-110" y="-180" width="220" height="360" rx="25" fill="#2171CC" filter="drop-shadow(0 6px 20px rgba(33, 113, 204, 0.25))"/>
    <rect x="-100" y="-165" width="200" height="330" rx="10" fill="white"/>
    
    <!-- Screen content -->
    <!-- Header -->
    <rect x="-100" y="-165" width="200" height="45" rx="10" fill="#8fa4da"/>
    <circle cx="-70" cy="-142" r="10" fill="white" opacity="0.3"/>
    <circle cx="-45" cy="-142" r="10" fill="white" opacity="0.3"/>
    <circle cx="-20" cy="-142" r="10" fill="white" opacity="0.5"/>
    
    <!-- Course cards -->
    <g transform="translate(0, -80)">
      <!-- Card 1 -->
      <rect x="-85" y="0" width="170" height="65" rx="10" fill="#e4f0ff" stroke="#8fa4da" stroke-width="2"/>
      <circle cx="-58" cy="32" r="20" fill="#2171CC"/>
      <text x="-58" y="39" font-family="Arial, sans-serif" font-size="18" font-weight="bold" fill="white" text-anchor="middle">📚</text>
      <line x1="-28" y1="20" x2="60" y2="20" stroke="#8fa4da" stroke-width="3.5" stroke-linecap="round"/>
      <line x1="-28" y1="40" x2="40" y2="40" stroke="#8fa4da" stroke-width="2.5" stroke-linecap="round" opacity="0.6"/>
      
      <!-- Card 2 -->
      <rect x="-85" y="80" width="170" height="65" rx="10" fill="#e4f0ff" stroke="#8fa4da" stroke-width="2"/>
      <circle cx="-58" cy="112" r="20" fill="#2171CC"/>
      <text x="-58" y="119" font-family="Arial, sans-serif" font-size="18" font-weight="bold" fill="white" text-anchor="middle">💼</text>
      <line x1="-28" y1="100" x2="60" y2="100" stroke="#8fa4da" stroke-width="3.5" stroke-linecap="round"/>
      <line x1="-28" y1="120" x2="40" y2="120" stroke="#8fa4da" stroke-width="2.5" stroke-linecap="round" opacity="0.6"/>
      
      <!-- Card 3 -->
      <rect x="-85" y="160" width="170" height="65" rx="10" fill="#e4f0ff" stroke="#8fa4da" stroke-width="2"/>
      <circle cx="-58" cy="192" r="20" fill="#2171CC"/>
      <text x="-58" y="199" font-family="Arial, sans-serif" font-size="18" font-weight="bold" fill="white" text-anchor="middle">🎓</text>
      <line x1="-28" y1="180" x2="60" y2="180" stroke="#8fa4da" stroke-width="3.5" stroke-linecap="round"/>
      <line x1="-28" y1="200" x2="40" y2="200" stroke="#8fa4da" stroke-width="2.5" stroke-linecap="round" opacity="0.6"/>
    </g>
    
    <!-- Home button -->
    <circle cx="0" cy="168" r="8" fill="#8fa4da"/>
  </g>
</svg>