<svg viewBox="0 0 800 480" xmlns="http://www.w3.org/2000/svg">
  <rect width="800" height="480" fill="#e4f0ff"/>
  
  <!-- Background geometric shapes -->
  <circle cx="650" cy="100" r="80" fill="#8fa4da" opacity="0.3"/>
  <circle cx="150" cy="400" r="60" fill="#2171CC" opacity="0.2"/>
  
  <!-- Main icon container -->
  <rect x="250" y="100" width="300" height="280" rx="20" fill="white" filter="drop-shadow(0 4px 12px rgba(33, 113, 204, 0.15))"/>
  
  <!-- API symbol -->
  <g transform="translate(400, 240)">
    <!-- Code brackets -->
    <path d="M -70 -50 L -95 -50 L -120 0 L -95 50 L -70 50" stroke="#2171CC" stroke-width="10" fill="none" stroke-linecap="round" stroke-linejoin="round"/>
    <path d="M 70 -50 L 95 -50 L 120 0 L 95 50 L 70 50" stroke="#2171CC" stroke-width="10" fill="none" stroke-linecap="round" stroke-linejoin="round"/>
    
    <!-- Shopping cart icon in center -->
    <circle cx="0" cy="-5" r="45" fill="#8fa4da"/>
    <path d="M -18 -18 L -12 8 L 12 8 L 18 -18 Z" fill="white" stroke="white" stroke-width="2.5"/>
    <circle cx="-6" cy="16" r="4" fill="white"/>
    <circle cx="6" cy="16" r="4" fill="white"/>
    <line x1="-22" y1="-18" x2="-15" y2="-18" stroke="white" stroke-width="2.5"/>
  </g>
  
  <!-- Document lines -->
  <line x1="280" y1="320" x2="400" y2="320" stroke="#8fa4da" stroke-width="4" stroke-linecap="round"/>
  <line x1="280" y1="345" x2="520" y2="345" stroke="#8fa4da" stroke-width="4" stroke-linecap="round" opacity="0.6"/>
</svg>